<?xml version="1.0" encoding="utf-8"?>
<!-- Generator: Adobe Illustrator 25.2.0, SVG Export Plug-In . SVG Version: 6.00 Build 0)  -->
<svg version="1.0" id="Layer_1" xmlns="http://www.w3.org/2000/svg" xmlns:xlink="http://www.w3.org/1999/xlink" x="0px" y="0px"
	 viewBox="0 0 1000 1000" style="enable-background:new 0 0 1000 1000;" xml:space="preserve">
<linearGradient id="SVGID_1_" gradientUnits="userSpaceOnUse" x1="133.333" y1="132.863" x2="812.345" y2="132.863" gradientTransform="matrix(1 0 0 -1 0 1002)">
	<stop  offset="0" style="stop-color:#FF0000"/>
	<stop  offset="0.3194" style="stop-color:#FFE600"/>
	<stop  offset="0.6424" style="stop-color:#18941D"/>
	<stop  offset="0.9503" style="stop-color:#38318A"/>
</linearGradient>
<path style="fill:url(#SVGID_1_);" d="M133.3,838.3h679V900h-679V838.3z"/>
<path style="fill-rule:evenodd;clip-rule:evenodd;fill:#2D2E2C;" d="M651,205.4l54.8-54.8c2.9,1,9.1,4,18.2,13.1l33.3,33.3
	c4.3,4.3,9.7,11.2,12.6,17.1c0.2,0.4,0.4,0.8,0.5,1.1l-54.7,54.7L651,205.4z M615.7,240.8L263.5,592.9l-31.1,93.3l111.9-44.7
	l336-336L615.7,240.8z M759.3,128.4c-30-30-64.6-37.4-85.4-16.7l-450,450c-2.7,2.7-4.8,6.1-6,9.8l-50,150
	c-3.1,9.2-0.5,19.4,6.6,26.1c7.1,6.7,17.4,8.6,26.4,5L367.6,686c3.1-1.3,6-3.1,8.4-5.5l433.3-433.3c18.8-18.8,11-43,5.8-54.2
	c-6.1-12.9-15.7-24.4-22.5-31.2L759.3,128.4z"/>
</svg>
